<mxfile host="Electron" agent="Mozilla/5.0 (Windows NT 10.0; Win64; x64) AppleWebKit/537.36 (KHTML, like Gecko) draw.io/24.7.5 Chrome/126.0.6478.183 Electron/31.3.0 Safari/537.36" version="24.7.5">
  <diagram name="PÃ¡gina-1" id="-DFBUJp8SnItasQxsl_O">
    <mxGraphModel dx="1280" dy="532" grid="1" gridSize="10" guides="1" tooltips="1" connect="1" arrows="1" fold="1" page="0" pageScale="1" pageWidth="827" pageHeight="1169" math="0" shadow="0">
      <root>
        <mxCell id="0" />
        <mxCell id="1" parent="0" />
        <mxCell id="ufBHsl7Qq-3H1o-r7pNQ-11" style="edgeStyle=orthogonalEdgeStyle;rounded=0;orthogonalLoop=1;jettySize=auto;html=1;entryX=1;entryY=0.5;entryDx=0;entryDy=0;endArrow=none;endFill=0;" edge="1" parent="1" source="ufBHsl7Qq-3H1o-r7pNQ-1" target="ufBHsl7Qq-3H1o-r7pNQ-10">
          <mxGeometry relative="1" as="geometry" />
        </mxCell>
        <mxCell id="ufBHsl7Qq-3H1o-r7pNQ-23" style="edgeStyle=orthogonalEdgeStyle;rounded=0;orthogonalLoop=1;jettySize=auto;html=1;entryX=0.5;entryY=0;entryDx=0;entryDy=0;endArrow=none;endFill=0;" edge="1" parent="1" source="ufBHsl7Qq-3H1o-r7pNQ-1" target="ufBHsl7Qq-3H1o-r7pNQ-22">
          <mxGeometry relative="1" as="geometry" />
        </mxCell>
        <mxCell id="ufBHsl7Qq-3H1o-r7pNQ-1" value="Programa" style="rounded=0;whiteSpace=wrap;html=1;" vertex="1" parent="1">
          <mxGeometry x="350" y="250" width="120" height="60" as="geometry" />
        </mxCell>
        <mxCell id="ufBHsl7Qq-3H1o-r7pNQ-2" value="Nombre" style="ellipse;whiteSpace=wrap;html=1;" vertex="1" parent="1">
          <mxGeometry x="220" y="150" width="120" height="80" as="geometry" />
        </mxCell>
        <mxCell id="ufBHsl7Qq-3H1o-r7pNQ-3" value="Tipo" style="ellipse;whiteSpace=wrap;html=1;" vertex="1" parent="1">
          <mxGeometry x="310" y="80" width="120" height="80" as="geometry" />
        </mxCell>
        <mxCell id="ufBHsl7Qq-3H1o-r7pNQ-4" value="Fecha inicial" style="ellipse;whiteSpace=wrap;html=1;" vertex="1" parent="1">
          <mxGeometry x="440" y="90" width="120" height="80" as="geometry" />
        </mxCell>
        <mxCell id="ufBHsl7Qq-3H1o-r7pNQ-5" value="Fecha final" style="ellipse;whiteSpace=wrap;html=1;" vertex="1" parent="1">
          <mxGeometry x="540" y="170" width="120" height="80" as="geometry" />
        </mxCell>
        <mxCell id="ufBHsl7Qq-3H1o-r7pNQ-6" value="" style="endArrow=none;html=1;rounded=0;" edge="1" parent="1" target="ufBHsl7Qq-3H1o-r7pNQ-5">
          <mxGeometry width="50" height="50" relative="1" as="geometry">
            <mxPoint x="470" y="250" as="sourcePoint" />
            <mxPoint x="520" y="200" as="targetPoint" />
          </mxGeometry>
        </mxCell>
        <mxCell id="ufBHsl7Qq-3H1o-r7pNQ-7" value="" style="endArrow=none;html=1;rounded=0;exitX=0.75;exitY=0;exitDx=0;exitDy=0;" edge="1" parent="1" source="ufBHsl7Qq-3H1o-r7pNQ-1" target="ufBHsl7Qq-3H1o-r7pNQ-4">
          <mxGeometry width="50" height="50" relative="1" as="geometry">
            <mxPoint x="480" y="260" as="sourcePoint" />
            <mxPoint x="556" y="237" as="targetPoint" />
          </mxGeometry>
        </mxCell>
        <mxCell id="ufBHsl7Qq-3H1o-r7pNQ-8" value="" style="endArrow=none;html=1;rounded=0;exitX=0.5;exitY=0;exitDx=0;exitDy=0;entryX=0.658;entryY=1.013;entryDx=0;entryDy=0;entryPerimeter=0;" edge="1" parent="1" source="ufBHsl7Qq-3H1o-r7pNQ-1" target="ufBHsl7Qq-3H1o-r7pNQ-3">
          <mxGeometry width="50" height="50" relative="1" as="geometry">
            <mxPoint x="450" y="260" as="sourcePoint" />
            <mxPoint x="491" y="178" as="targetPoint" />
          </mxGeometry>
        </mxCell>
        <mxCell id="ufBHsl7Qq-3H1o-r7pNQ-9" value="" style="endArrow=none;html=1;rounded=0;exitX=0.25;exitY=0;exitDx=0;exitDy=0;entryX=0.742;entryY=0.988;entryDx=0;entryDy=0;entryPerimeter=0;" edge="1" parent="1" source="ufBHsl7Qq-3H1o-r7pNQ-1" target="ufBHsl7Qq-3H1o-r7pNQ-2">
          <mxGeometry width="50" height="50" relative="1" as="geometry">
            <mxPoint x="420" y="260" as="sourcePoint" />
            <mxPoint x="399" y="171" as="targetPoint" />
          </mxGeometry>
        </mxCell>
        <mxCell id="ufBHsl7Qq-3H1o-r7pNQ-13" style="edgeStyle=orthogonalEdgeStyle;rounded=0;orthogonalLoop=1;jettySize=auto;html=1;endArrow=none;endFill=0;" edge="1" parent="1" source="ufBHsl7Qq-3H1o-r7pNQ-10" target="ufBHsl7Qq-3H1o-r7pNQ-12">
          <mxGeometry relative="1" as="geometry" />
        </mxCell>
        <mxCell id="ufBHsl7Qq-3H1o-r7pNQ-10" value="aparecen" style="rhombus;whiteSpace=wrap;html=1;" vertex="1" parent="1">
          <mxGeometry x="180" y="240" width="80" height="80" as="geometry" />
        </mxCell>
        <mxCell id="ufBHsl7Qq-3H1o-r7pNQ-12" value="Capitulo" style="rounded=0;whiteSpace=wrap;html=1;" vertex="1" parent="1">
          <mxGeometry x="-30" y="250" width="120" height="60" as="geometry" />
        </mxCell>
        <mxCell id="ufBHsl7Qq-3H1o-r7pNQ-14" value="Numero" style="ellipse;whiteSpace=wrap;html=1;" vertex="1" parent="1">
          <mxGeometry x="-160" y="150" width="120" height="80" as="geometry" />
        </mxCell>
        <mxCell id="ufBHsl7Qq-3H1o-r7pNQ-15" value="Dia&amp;nbsp;" style="ellipse;whiteSpace=wrap;html=1;" vertex="1" parent="1">
          <mxGeometry x="-40" y="80" width="120" height="80" as="geometry" />
        </mxCell>
        <mxCell id="ufBHsl7Qq-3H1o-r7pNQ-16" value="Horario" style="ellipse;whiteSpace=wrap;html=1;" vertex="1" parent="1">
          <mxGeometry x="70" y="140" width="120" height="80" as="geometry" />
        </mxCell>
        <mxCell id="ufBHsl7Qq-3H1o-r7pNQ-17" value="" style="endArrow=none;html=1;rounded=0;exitX=0.825;exitY=-0.033;exitDx=0;exitDy=0;exitPerimeter=0;" edge="1" parent="1" source="ufBHsl7Qq-3H1o-r7pNQ-12" target="ufBHsl7Qq-3H1o-r7pNQ-16">
          <mxGeometry width="50" height="50" relative="1" as="geometry">
            <mxPoint x="-20" y="260" as="sourcePoint" />
            <mxPoint x="30" y="210" as="targetPoint" />
          </mxGeometry>
        </mxCell>
        <mxCell id="ufBHsl7Qq-3H1o-r7pNQ-18" value="" style="endArrow=none;html=1;rounded=0;exitX=0.167;exitY=-0.033;exitDx=0;exitDy=0;exitPerimeter=0;entryX=0.775;entryY=0.875;entryDx=0;entryDy=0;entryPerimeter=0;" edge="1" parent="1" source="ufBHsl7Qq-3H1o-r7pNQ-12" target="ufBHsl7Qq-3H1o-r7pNQ-14">
          <mxGeometry width="50" height="50" relative="1" as="geometry">
            <mxPoint x="79" y="258" as="sourcePoint" />
            <mxPoint x="109" y="224" as="targetPoint" />
          </mxGeometry>
        </mxCell>
        <mxCell id="ufBHsl7Qq-3H1o-r7pNQ-20" value="" style="endArrow=none;html=1;rounded=0;exitX=0.442;exitY=0.067;exitDx=0;exitDy=0;exitPerimeter=0;entryX=0.5;entryY=1;entryDx=0;entryDy=0;" edge="1" parent="1" source="ufBHsl7Qq-3H1o-r7pNQ-12" target="ufBHsl7Qq-3H1o-r7pNQ-15">
          <mxGeometry width="50" height="50" relative="1" as="geometry">
            <mxPoint y="258" as="sourcePoint" />
            <mxPoint x="-57" y="230" as="targetPoint" />
          </mxGeometry>
        </mxCell>
        <mxCell id="ufBHsl7Qq-3H1o-r7pNQ-21" value="Audiencia" style="rounded=0;whiteSpace=wrap;html=1;" vertex="1" parent="1">
          <mxGeometry x="350" y="500" width="120" height="60" as="geometry" />
        </mxCell>
        <mxCell id="ufBHsl7Qq-3H1o-r7pNQ-24" style="edgeStyle=orthogonalEdgeStyle;rounded=0;orthogonalLoop=1;jettySize=auto;html=1;entryX=0.5;entryY=0;entryDx=0;entryDy=0;endArrow=none;endFill=0;" edge="1" parent="1" source="ufBHsl7Qq-3H1o-r7pNQ-22" target="ufBHsl7Qq-3H1o-r7pNQ-21">
          <mxGeometry relative="1" as="geometry" />
        </mxCell>
        <mxCell id="ufBHsl7Qq-3H1o-r7pNQ-22" value="dirigido" style="rhombus;whiteSpace=wrap;html=1;" vertex="1" parent="1">
          <mxGeometry x="370" y="370" width="80" height="80" as="geometry" />
        </mxCell>
        <mxCell id="ufBHsl7Qq-3H1o-r7pNQ-25" value="se calisifica" style="rhombus;whiteSpace=wrap;html=1;" vertex="1" parent="1">
          <mxGeometry x="580" y="490" width="80" height="80" as="geometry" />
        </mxCell>
        <mxCell id="ufBHsl7Qq-3H1o-r7pNQ-26" value="Televidentes" style="rounded=0;whiteSpace=wrap;html=1;" vertex="1" parent="1">
          <mxGeometry x="760" y="500" width="120" height="60" as="geometry" />
        </mxCell>
      </root>
    </mxGraphModel>
  </diagram>
</mxfile>
